# xmcd
#
# Track frame offsets:
#	150
#	14167
#	30381
#	45547
#	57592
#	75466
#	94014
#	106100
#	119259
#	131873
#
# Disc length: 1975 seconds
#
# Revision: 0
# Processed by: cddbd v1.5.2PL0 Copyright (c) Steve Scherf et al.
# Submitted via: EasyCDDAExtractor 16.0.8.1
#
DISCID=7d07b50a
DTITLE=Joensuu Riihimaki - Greeting From The Edge Of The World
DYEAR=1900
DGENRE=
TTITLE0=A Pale Wind Comin' 
TTITLE1=Lorraine's Motel 
TTITLE2=Joe's Cafe Blues 
TTITLE3=One Man's War 
TTITLE4=Freefall 
TTITLE5=Everlasting 
TTITLE6=Old, Unhappy, Far Off Things 
TTITLE7=Maybelline 
TTITLE8=All Along The Watchtower 
TTITLE9=Every Mind Has Its Mountain 
EXTD=
EXTT0=
EXTT1=
EXTT2=
EXTT3=
EXTT4=
EXTT5=
EXTT6=
EXTT7=
EXTT8=
EXTT9=
PLAYORDER=
